<svg width="42" height="42" viewBox="0 0 42 42" fill="none" xmlns="http://www.w3.org/2000/svg">
<g clip-path="url(#clip0)">
<path d="M12.9783 31.6777C12.7644 31.6777 12.6219 31.6777 12.408 31.6064L7.06131 29.8954C6.63357 29.7529 5.70682 29.2538 6.13455 27.8281L8.84353 19.3447L17.0418 21.9824L14.3328 30.3945C14.1902 31.1074 13.6199 31.6064 12.9783 31.6777Z" fill="#F4A23F"/>
<path d="M17.084 22.0139L18.0226 19.0955L9.81047 16.4541L8.87181 19.3725L17.084 22.0139Z" fill="#FBCF4C"/>
<path d="M14.8318 21.2695L12.1941 29.539C12.0515 30.2519 11.4812 30.7509 10.7683 30.7509C10.5545 30.7509 10.4119 30.7509 10.198 30.6796L6.4197 29.4677C6.63357 29.6816 6.84744 29.7529 7.0613 29.8954L12.408 31.6064C12.5506 31.6777 12.7644 31.6777 12.9783 31.6777C13.6912 31.6064 14.2615 31.1074 14.4041 30.4658L17.1131 22.0536L14.8318 21.2695Z" fill="#E28539"/>
<path d="M15.7586 18.4179L14.9031 21.1269L8.91482 19.2021L8.84354 19.3447L17.1131 21.9824L18.0398 19.1308L15.7586 18.4179Z" fill="#EDB248"/>
<path d="M14.9744 35.6698C14.8318 35.6698 14.6179 35.6698 14.4754 35.5986L3.06912 31.8915C2.21365 31.6064 1.71463 30.6796 1.99978 29.8241C2.21365 29.1825 2.85525 28.6835 3.49685 28.6835L7.63162 15.7802L9.77029 16.4931L6.13455 27.7568C5.70681 29.1825 6.63357 29.6816 7.06131 29.8241L12.408 31.5351C12.5506 31.6064 12.7644 31.6064 12.9783 31.6064C13.6912 31.5351 14.2615 31.0361 14.4041 30.3945L18.0398 19.0595L20.1785 19.7724L15.9724 32.6757C16.5427 33.1034 16.7566 33.8163 16.5428 34.4579C16.3289 35.1708 15.6873 35.6698 14.9744 35.6698Z" fill="white"/>
<path d="M13.9763 31.1786L12.6931 35.0282L14.4754 35.5986C14.6179 35.6698 14.8318 35.6698 14.9744 35.6698C15.6873 35.6698 16.3289 35.2421 16.5428 34.5292C16.7566 33.8876 16.5428 33.1747 15.9724 32.747L20.1072 19.8437L17.9685 19.1308L14.3328 30.4658C14.2615 30.6796 14.1902 30.9648 13.9763 31.1786Z" fill="#F7EEBA"/>
<path d="M19.1092 19.3447C18.8953 19.3447 18.6814 19.3447 18.4676 19.2734L9.55642 16.4218C9.12869 16.2792 8.70095 15.9941 8.4158 15.6376C8.20193 15.2812 8.13064 14.9247 8.20193 14.497C8.4158 13.9267 9.0574 13.499 9.699 13.5702C9.91287 13.5702 10.198 13.6415 10.4119 13.7128H10.4832C10.9109 12.7148 11.909 12.1445 12.9783 12.2158C13.406 12.2158 13.7625 12.287 14.1189 12.4296C15.0457 12.7148 15.8299 13.3564 16.2576 14.2119C16.4002 14.2119 16.5428 14.1406 16.6853 14.2119C16.9705 14.2119 17.2556 14.2831 17.5408 14.3544C18.1111 14.497 18.5388 14.8535 18.8953 15.3525C19.1804 15.7089 19.2517 16.2079 19.1804 16.6357V16.707V16.6357L19.2517 16.707C19.7508 16.8495 20.1785 17.206 20.3924 17.6337C20.5349 17.9189 20.6062 18.204 20.4637 18.4892C20.2498 19.0595 19.6795 19.3447 19.1092 19.3447Z" fill="white"/>
<path d="M20.3924 17.6337C20.1072 17.206 19.7508 16.8495 19.2517 16.707L19.1804 16.6357V16.5644C19.323 16.1367 19.1805 15.6376 18.8953 15.2812C18.5388 14.8535 18.1111 14.497 17.5408 14.2831C17.2556 14.2119 16.9705 14.1406 16.6853 14.1406C16.5428 14.1406 16.4002 14.1406 16.2576 14.1406C15.8299 13.2851 15.0457 12.5722 14.1189 12.3583C13.7625 12.2158 13.3347 12.1445 12.9783 12.1445C12.5506 12.1445 12.1228 12.2158 11.6951 12.4296C11.8377 12.4296 11.909 12.5009 12.0515 12.5009C12.9783 12.7861 13.7625 13.4277 14.1902 14.2831C14.3328 14.2831 14.4754 14.2119 14.6179 14.2831C14.9031 14.2831 15.1883 14.3544 15.4734 14.4257C16.0437 14.5683 16.4715 14.9247 16.8279 15.4238C17.1131 15.7802 17.1844 16.2792 17.1131 16.707V16.7783V16.8495L17.1844 16.9208C17.6834 17.0634 18.1111 17.4199 18.325 17.8476C18.4676 18.1328 18.5388 18.4179 18.3963 18.7031C18.325 18.8456 18.2537 19.0595 18.1111 19.1308L18.4676 19.2734C18.6814 19.3447 18.8953 19.3447 19.1092 19.3447C19.6795 19.416 20.2498 19.0595 20.4637 18.4892C20.5349 18.204 20.5349 17.9189 20.3924 17.6337Z" fill="#F7EEBA"/>
<path d="M26.951 35.6699C26.2381 35.6699 25.5965 35.2421 25.3826 34.5292C25.1687 33.8876 25.3826 33.1747 25.9529 32.747L21.8181 19.8437L23.9568 19.1308L27.5926 30.4658C27.7351 31.1787 28.3054 31.6777 29.0183 31.6777C29.2322 31.6777 29.3748 31.6777 29.5887 31.6064L34.9353 29.8955C35.3631 29.7529 36.2898 29.2538 35.8621 27.8281L33.0818 19.4872L33.0105 19.416V19.2021L32.0838 16.4218L34.2224 15.7089L38.4285 28.6835C39.3553 28.6835 40.0681 29.4677 39.9969 30.3945C39.9969 31.1074 39.4978 31.749 38.8562 31.8915L27.45 35.5986C27.3074 35.6699 27.0935 35.6699 26.951 35.6699Z" fill="white"/>
<path d="M39.9256 29.8242C39.7117 29.1826 39.1414 28.6835 38.4285 28.6835L34.2937 15.7802L32.1551 16.4931L33.0818 19.2734V19.3447V19.4872L33.1531 19.5585L35.7908 27.8281C35.8621 28.0419 35.9334 28.3271 35.9334 28.541L37.1453 32.4619L38.9275 31.8915C39.783 31.6064 40.2107 30.6796 39.9256 29.8242Z" fill="#F7EEBA"/>
<path d="M24.8465 22.0143L33.0575 19.3713L32.1183 16.4534L23.9072 19.0964L24.8465 22.0143Z" fill="#FBCF4C"/>
<path d="M30.0164 17.206L30.9431 20.0576L33.0818 19.3447L32.1551 16.4931L30.0164 17.206Z" fill="#EDB248"/>
<path d="M22.8162 19.3447C22.2459 19.416 21.6756 19.0595 21.4617 18.4892C21.3904 18.204 21.3904 17.9189 21.533 17.6337C21.7469 17.206 22.1746 16.8496 22.6736 16.707H22.7449H22.8162V16.6357C22.6736 16.1367 22.7449 15.6376 23.0301 15.2812C23.3865 14.8535 23.8142 14.497 24.3845 14.2832C24.6697 14.2119 24.9549 14.1406 25.24 14.1406C25.3826 14.1406 25.5252 14.1406 25.6678 14.1406C26.0955 13.2851 26.8797 12.5722 27.8064 12.3583C28.1629 12.2158 28.5906 12.1445 28.947 12.1445C29.9451 12.0732 30.9431 12.6435 31.3709 13.5703H31.5135C31.7273 13.499 32.0125 13.4277 32.2263 13.4277C32.8679 13.3564 33.5095 13.7128 33.7234 14.3544C33.866 14.7109 33.7947 15.1386 33.5095 15.4951C33.2244 15.9228 32.7967 16.208 32.3689 16.2792L23.4578 19.1308C23.2439 19.2734 23.0301 19.3447 22.8162 19.3447Z" fill="white"/>
<path d="M33.7234 14.4257C33.4383 13.8554 32.8679 13.4277 32.2263 13.499C32.0125 13.499 31.7273 13.5703 31.5135 13.6416H31.3709C30.9431 12.7148 29.9451 12.1445 28.947 12.2158C28.5193 12.2158 28.1629 12.2871 27.8064 12.4296C26.8797 12.7148 26.0955 13.3564 25.6678 14.2119C25.5252 14.2119 25.3826 14.1406 25.24 14.2119C24.9549 14.2119 24.6697 14.2832 24.3845 14.3544C23.8142 14.497 23.3865 14.8535 23.0301 15.3525C22.8875 15.5664 22.7449 15.8515 22.7449 16.0654C22.8875 15.9941 22.9588 15.9941 23.1013 15.9228C23.3865 15.8515 23.6717 15.7802 23.9568 15.7802C24.0994 15.7802 24.242 15.7802 24.3845 15.7802C24.8123 14.9248 25.5965 14.2119 26.5232 13.998C26.8797 13.8554 27.3074 13.7841 27.6638 13.7841C28.6619 13.7128 29.6599 14.2832 30.0877 15.2099H30.2303C30.4441 15.1386 30.7293 15.0673 30.9431 15.0673C31.5847 14.996 32.2263 15.3525 32.4402 15.9941C32.4402 16.1367 32.5115 16.208 32.5115 16.3505C32.9392 16.208 33.2957 15.9228 33.5095 15.5664C33.7947 15.2099 33.866 14.8535 33.7234 14.4257Z" fill="#F7EEBA"/>
<path d="M28.9471 31.6777C28.2342 31.6064 27.6639 31.1074 27.5213 30.4658L24.8123 22.0537L33.0818 19.3447L35.7908 27.7568C36.2898 29.1826 35.2918 29.6816 34.864 29.8242L29.5174 31.5351C29.3035 31.6064 29.1609 31.6777 28.9471 31.6777Z" fill="#F4A23F"/>
<path d="M35.7908 27.7568L33.0818 19.3447L30.9431 20.0576L33.6521 28.4697C34.0799 29.8242 33.2957 30.3232 32.8679 30.4658L34.864 29.8242C35.2918 29.6816 36.2185 29.2538 35.7908 27.7568Z" fill="#E28539"/>
<path d="M40.1394 18.4892C39.9256 17.705 39.4265 16.9921 38.7137 16.5644C38.2146 16.2792 37.573 16.2792 37.0027 16.4931L35.4344 16.9921L35.0066 15.5664C34.9353 15.3525 34.7928 15.1386 34.5076 15.1386C34.5789 14.8535 34.5076 14.5683 34.4363 14.2119C34.0086 13.1425 32.868 12.5722 31.7986 12.8574C31.157 11.9306 30.0877 11.4316 28.9471 11.5029C28.448 11.5029 28.0203 11.5742 27.5213 11.7167C26.5945 12.0019 25.739 12.6435 25.24 13.499C24.8836 13.499 24.5271 13.5703 24.1707 13.6415C23.4578 13.8554 22.8875 14.2831 22.4597 14.8535C22.1746 15.2812 22.032 15.7802 22.032 16.2792C21.6043 16.4931 21.2478 16.8496 21.034 17.2773C20.8201 16.8496 20.4637 16.4931 19.9646 16.2792C19.9646 15.7802 19.8221 15.2812 19.5369 14.8535C19.1092 14.2831 18.5388 13.8554 17.826 13.6415C17.4695 13.5703 17.1131 13.499 16.7566 13.499C16.1863 12.6435 15.4021 12.0732 14.4754 11.788C14.0476 11.6455 13.5486 11.5742 13.0496 11.5742C11.909 11.5029 10.9109 12.0019 10.198 12.9287C10.0554 12.9287 9.91287 12.8574 9.699 12.9287C8.77225 12.8574 7.84549 13.4277 7.48904 14.3544C7.41775 14.6396 7.34646 14.9247 7.41775 15.2812C7.20389 15.3525 6.99002 15.4951 6.91873 15.7089L6.491 17.1347L4.92264 16.6357C4.35232 16.4218 3.78201 16.4931 3.2117 16.707C2.49881 17.1347 1.99978 17.8476 1.78592 18.6318L0.431425 22.7665C0.288847 23.123 0.217557 23.622 0.288847 24.121C0.288847 25.0478 0.930448 25.9033 1.85721 26.1171L3.42557 26.6162L2.92654 28.0419C1.64334 28.3984 0.930448 29.6816 1.28689 30.8935C1.50076 31.6777 2.07107 32.248 2.85525 32.5331L14.2615 36.2402C14.4754 36.3115 14.7605 36.3828 14.9744 36.3828C16.2576 36.3828 17.3269 35.3134 17.3269 34.0302C17.3269 33.4599 17.1131 32.9609 16.7566 32.5331L20.7488 20.0576C20.8201 19.8437 20.7488 19.6298 20.6775 19.4872C20.7488 19.416 20.8201 19.2734 20.8914 19.2021C20.9627 19.2734 21.034 19.416 21.1053 19.4872C20.9627 19.6298 20.9627 19.8437 21.034 20.0576L25.0974 32.5331C24.242 33.5312 24.3846 35.0283 25.3826 35.8124C26.0242 36.3115 26.8797 36.5253 27.5926 36.2402L38.9988 32.5331C40.2107 32.1767 40.9236 30.8222 40.5672 29.6103C40.3533 28.8261 39.7117 28.2558 38.9275 28.0419L38.4285 26.6162L39.9969 26.1171C40.8523 25.832 41.4939 25.0478 41.5652 24.121C41.5652 23.622 41.4939 23.123 41.3513 22.624L40.1394 18.4892ZM2.28494 24.7626C1.9285 24.6913 1.71463 24.4062 1.71463 24.0497C1.71463 23.6933 1.71463 23.4081 1.85721 23.0517L3.14041 18.9169C3.2117 18.4892 3.49685 18.1328 3.8533 17.8476C4.06717 17.7763 4.28103 17.7763 4.4949 17.8476L6.06326 18.3466L3.8533 25.2617L2.28494 24.7626ZM15.2595 32.5331C15.1883 32.8183 15.2596 33.1035 15.4734 33.3173C15.7586 33.5312 15.9012 33.9589 15.8299 34.3154C15.6873 34.8144 15.117 35.0996 14.6892 34.8857L3.28299 31.1787C2.78396 31.0361 2.49881 30.5371 2.64139 30.038C2.78396 29.6816 3.06912 29.3964 3.49685 29.3964C3.78201 29.3964 4.06717 29.1826 4.13846 28.8974L8.13064 16.6357L8.91482 16.9208L8.20193 19.1308L5.49295 27.5429C4.99392 28.6122 5.49295 29.8955 6.56228 30.3945C6.70486 30.4658 6.77615 30.4658 6.91873 30.5371L12.2654 32.248C12.4793 32.3193 12.7644 32.3906 13.0496 32.3906C14.0476 32.3193 14.9031 31.6777 15.117 30.6796L17.826 22.2675L18.5388 20.0576L19.323 20.2714L15.2595 32.5331ZM16.1863 22.4814L13.6912 30.1806C13.6199 30.3945 13.406 30.8935 12.9783 30.8935C12.8357 30.8935 12.7644 30.8935 12.6219 30.8222L7.27517 29.1113C6.77615 28.9687 6.63357 28.6122 6.84744 27.9706L9.34256 20.2001L16.1863 22.4814ZM9.77029 18.9169L10.2693 17.3486L15.117 18.9169L17.1131 19.5585L16.614 21.1269L9.77029 18.9169ZM18.6814 18.5605L9.77029 15.7089C9.48514 15.6376 9.19998 15.4238 8.98611 15.2099C8.84353 15.0673 8.84353 14.8535 8.84353 14.7109C8.98611 14.4257 9.34256 14.2831 9.62771 14.2831C9.77029 14.2831 9.98416 14.2831 10.1267 14.3544H10.2693C10.6258 14.497 11.0535 14.2831 11.1961 13.9267C11.1961 13.9267 11.1961 13.9267 11.1961 13.8554C11.4812 13.2138 12.1941 12.7861 12.9783 12.8574C13.3347 12.8574 13.6199 12.9287 13.9051 12.9999C14.6179 13.2138 15.2596 13.7128 15.5447 14.4257C15.6873 14.7109 15.9724 14.9247 16.3289 14.8535C16.614 14.7822 16.9705 14.8535 17.2556 14.9247C17.6834 15.0673 17.9685 15.2812 18.2537 15.6376C18.3963 15.8515 18.4676 16.0654 18.4676 16.3505L18.3963 16.4218C18.2537 16.7783 18.3963 17.206 18.7527 17.3486H18.824H18.8953C19.4656 17.4912 19.7508 17.9189 19.6795 18.204C19.6082 18.4892 19.1804 18.7031 18.6814 18.5605ZM22.1033 18.2753C22.032 17.9902 22.3172 17.5624 22.8875 17.4199H22.9588C23.3152 17.3486 23.6004 16.9208 23.4578 16.5644V16.4931V16.4218C23.3865 16.208 23.4578 15.9228 23.6004 15.7089C23.8142 15.3525 24.1707 15.1386 24.5984 14.996C24.8836 14.9247 25.24 14.8535 25.5252 14.9247C25.8816 14.996 26.1668 14.7822 26.3094 14.497C26.6658 13.7841 27.2361 13.2851 27.949 13.0712C28.2342 12.9999 28.5906 12.9287 28.8758 12.9287C29.5887 12.8574 30.3015 13.2138 30.658 13.8554C30.7293 14.0693 30.8719 14.2119 31.0144 14.2831C31.2283 14.3544 31.4422 14.3544 31.5847 14.2831L31.656 14.2119C32.2263 13.998 32.8679 14.2119 32.9392 14.5683C33.0105 14.7822 32.9392 14.9247 32.7967 15.0673C32.5828 15.3525 32.3689 15.4951 32.0125 15.5664L23.1013 18.4179C22.7449 18.7031 22.2459 18.5605 22.1033 18.2753ZM32.5828 20.2714L35.0779 27.9706C35.2918 28.6122 35.1492 28.9687 34.6502 29.1113L29.3035 30.8935C29.2322 30.8935 29.0896 30.9648 28.9471 30.9648C28.5193 30.9648 28.3054 30.4658 28.2342 30.2519L25.739 22.4814L32.5828 20.2714ZM25.3113 21.1269L24.8123 19.5585L26.8084 18.9169L31.656 17.3486L32.1551 18.9169L25.3113 21.1269ZM39.2127 30.038C39.3553 30.5371 39.0701 31.0361 38.6424 31.2499L27.2361 34.957C26.7371 35.0996 26.2381 34.8144 26.0242 34.3867C25.8816 34.0302 26.0242 33.6025 26.3806 33.3886C26.5945 33.1747 26.7371 32.8896 26.5945 32.6044L22.6736 20.3427L23.4578 20.1288L24.1707 22.3388L26.8797 30.7509C27.0935 31.749 27.949 32.4619 28.9471 32.4619C29.2322 32.4619 29.4461 32.3906 29.7312 32.3193L35.0779 30.6083C36.2185 30.3232 36.8601 29.1113 36.575 27.9706C36.575 27.8281 36.5037 27.7568 36.4324 27.6142L33.7234 19.2021L33.0105 16.9921L33.7947 16.707L37.7156 28.9687C37.7869 29.2539 38.0721 29.4677 38.3572 29.4677C38.7849 29.4677 39.1414 29.6816 39.2127 30.038ZM40.2107 23.9785C40.2107 24.3349 39.9256 24.6201 39.6404 24.6914L38.072 25.2617L35.8621 18.2753L37.4305 17.7763C37.6443 17.705 37.8582 17.705 38.072 17.7763C38.4285 18.0615 38.7136 18.4179 38.7849 18.8456L40.1394 23.0517C40.2107 23.3369 40.2107 23.6933 40.2107 23.9785Z" fill="#4A2328"/>
<path d="M20.8201 12.3583C21.2478 12.3583 21.533 12.0732 21.533 11.6454V6.15619C21.533 5.72845 21.2478 5.4433 20.8201 5.4433C20.3924 5.4433 20.1072 5.72845 20.1072 6.15619V11.6454C20.1072 12.0732 20.4636 12.3583 20.8201 12.3583Z" fill="#4A2328"/>
<path d="M22.8875 12.8574C23.2439 13.0712 23.6717 12.9286 23.8142 12.5722L26.6658 7.08294C26.8084 6.7265 26.6658 6.29876 26.3094 6.15618C25.9529 6.01361 25.5965 6.15618 25.4539 6.44134L22.6023 11.9306C22.4597 12.2158 22.6023 12.6435 22.8875 12.8574Z" fill="#4A2328"/>
<path d="M17.7547 12.5722C17.8972 12.9287 18.325 13.0712 18.6814 12.9287C19.0379 12.7861 19.1804 12.3583 19.0379 12.0019C19.0379 12.0019 19.0379 11.9306 18.9666 11.9306L16.115 6.44135C15.9011 6.0849 15.4734 6.01361 15.117 6.22748C14.8318 6.44135 14.6892 6.79779 14.8318 7.08295L17.7547 12.5722Z" fill="#4A2328"/>
</g>
<defs>
<clipPath id="clip0">
<rect width="41.3043" height="41.3043" fill="white" transform="translate(0.260864 0.260864)"/>
</clipPath>
</defs>
</svg>
